<svg width="344" height="60" viewBox="0 0 344 60" fill="none" xmlns="http://www.w3.org/2000/svg">
<mask id="path-1-outside-1_298_8" maskUnits="userSpaceOnUse" x="-0.75" y="4.5" width="344" height="51" fill="black">
<rect fill="black" x="-0.75" y="4.5" width="344" height="51"/>
<path d="M4.15381 53.647V46.4741H15.3892C18.6265 46.4741 21.3031 45.8817 23.4189 44.6968C25.556 43.5119 27.1641 41.7557 28.2432 39.4282C29.3223 37.0796 29.8618 34.1491 29.8618 30.6367C29.8618 27.1243 29.3328 24.2044 28.2749 21.877C27.217 19.5283 25.63 17.7721 23.5142 16.6084C21.4194 15.4447 18.7957 14.8628 15.6431 14.8628H3.8999V7.68994H16.0874C20.6366 7.68994 24.5615 8.61035 27.8623 10.4512C31.1631 12.2708 33.6916 14.9051 35.4478 18.354C37.2039 21.8029 38.082 25.8971 38.082 30.6367C38.082 35.3975 37.1934 39.5023 35.416 42.9512C33.6598 46.4001 31.1102 49.0449 27.7671 50.8857C24.424 52.7266 20.4355 53.647 15.8018 53.647H4.15381ZM8.50195 53.647H0.25V7.68994H8.50195V53.647Z"/>
<path d="M58.8719 54.3135C55.5711 54.3135 52.6618 53.5729 50.1438 52.0918C47.6471 50.6107 45.7216 48.5265 44.3675 45.8394C43.0133 43.1522 42.3362 40.0524 42.3362 36.54C42.3362 32.9854 43.0133 29.875 44.3675 27.209C45.7216 24.5218 47.6471 22.4377 50.1438 20.9565C52.6618 19.4754 55.5711 18.7349 58.8719 18.7349C62.1938 18.7349 65.1032 19.4754 67.5999 20.9565C70.0966 22.4377 72.0115 24.5218 73.3445 27.209C74.6775 29.875 75.344 32.9854 75.344 36.54C75.344 40.0524 74.6775 43.1522 73.3445 45.8394C72.0115 48.5265 70.0966 50.6107 67.5999 52.0918C65.1032 53.5729 62.1938 54.3135 58.8719 54.3135ZM58.9354 47.8706C60.7127 47.8706 62.215 47.3734 63.4422 46.3789C64.6906 45.3633 65.6215 43.9985 66.2352 42.2847C66.8488 40.5708 67.1556 38.6453 67.1556 36.5083C67.1556 34.3501 66.8488 32.4141 66.2352 30.7002C65.6215 28.9863 64.6906 27.6322 63.4422 26.6377C62.215 25.6221 60.7127 25.1143 58.9354 25.1143C57.1157 25.1143 55.5711 25.6221 54.3016 26.6377C53.032 27.6322 52.0799 28.9863 51.4451 30.7002C50.8104 32.4141 50.493 34.3501 50.493 36.5083C50.493 38.6665 50.8104 40.6025 51.4451 42.3164C52.0799 44.0091 53.032 45.3633 54.3016 46.3789C55.5711 47.3734 57.1157 47.8706 58.9354 47.8706Z"/>
<path d="M95.4039 54.3135C92.0396 54.3135 89.0986 53.5623 86.5807 52.0601C84.0839 50.5578 82.169 48.4631 80.836 45.7759C79.5242 43.0887 78.8683 40.0101 78.8683 36.54C78.8683 33.0488 79.5453 29.9596 80.8995 27.2725C82.2537 24.5641 84.1686 22.4694 86.6441 20.9883C89.1197 19.486 92.0185 18.7349 95.3404 18.7349C98.1122 18.7349 100.588 19.2427 102.767 20.2583C104.947 21.2528 106.671 22.6916 107.941 24.5747C109.231 26.4367 109.961 28.6055 110.13 31.0811H102.418C102.206 29.9385 101.794 28.9334 101.18 28.0659C100.567 27.1772 99.7838 26.479 98.8316 25.9712C97.8795 25.4634 96.7581 25.2095 95.4674 25.2095C93.7958 25.2095 92.3253 25.6644 91.0558 26.5742C89.7862 27.4629 88.7918 28.743 88.0724 30.4146C87.3741 32.0861 87.025 34.075 87.025 36.3813C87.025 38.7088 87.3741 40.7295 88.0724 42.4434C88.7706 44.1361 89.7545 45.4373 91.024 46.3472C92.2936 47.257 93.7747 47.7119 95.4674 47.7119C96.6734 47.7119 97.7525 47.4897 98.7047 47.0454C99.678 46.5799 100.482 45.9134 101.117 45.0459C101.752 44.1572 102.185 43.1099 102.418 41.9038H110.13C109.94 44.3371 109.221 46.4847 107.972 48.3467C106.724 50.2087 105.021 51.6686 102.862 52.7266C100.725 53.7845 98.2392 54.3135 95.4039 54.3135Z"/>
<path d="M115.305 7.68994H144.726V14.6406H123.557V27.209H142.695V34.0962H123.557V53.647H115.305V7.68994Z"/>
<path d="M169.896 19.1792H177.926V53.647H170.15V47.5532H169.769C168.923 49.5422 167.611 51.1291 165.834 52.314C164.078 53.4989 161.93 54.0913 159.391 54.0913C157.127 54.0913 155.127 53.5835 153.392 52.5679C151.678 51.5311 150.335 50.0394 149.362 48.0928C148.409 46.1462 147.933 43.8187 147.933 41.1104V19.1792H155.995V39.8726C155.995 41.3114 156.259 42.5703 156.788 43.6494C157.338 44.7285 158.111 45.5643 159.105 46.1567C160.1 46.728 161.232 47.0137 162.501 47.0137C163.771 47.0137 164.966 46.7174 166.088 46.125C167.23 45.5114 168.151 44.6121 168.849 43.4272C169.547 42.2212 169.896 40.793 169.896 39.1426V19.1792Z"/>
<path d="M203.953 28.9863C203.699 27.6322 203.043 26.5848 201.985 25.8442C200.927 25.1037 199.552 24.7334 197.859 24.7334C196.716 24.7334 195.69 24.9027 194.78 25.2412C193.87 25.5798 193.151 26.0664 192.622 26.7012C192.114 27.3359 191.86 28.0448 191.86 28.8276C191.839 29.7375 192.231 30.5203 193.035 31.1763C193.839 31.8322 195.087 32.3506 196.78 32.7314L202.651 34.001C205.91 34.6781 208.333 35.7889 209.919 37.3335C211.528 38.8781 212.332 40.8776 212.332 43.332C212.332 45.4691 211.729 47.3734 210.522 49.0449C209.316 50.6953 207.613 51.986 205.413 52.917C203.212 53.848 200.62 54.3135 197.637 54.3135C194.738 54.3135 192.231 53.9009 190.115 53.0757C187.999 52.2505 186.327 51.055 185.1 49.4893C183.873 47.9023 183.111 46.0192 182.815 43.8398H191.035C191.331 45.2786 192.03 46.3683 193.13 47.1089C194.23 47.8283 195.722 48.188 197.605 48.188C198.896 48.188 200.028 48.0293 201.001 47.7119C201.974 47.3734 202.725 46.8973 203.254 46.2837C203.783 45.6489 204.048 44.9084 204.048 44.062C204.048 43.0464 203.646 42.2106 202.842 41.5547C202.038 40.8988 200.779 40.391 199.065 40.0312L193.511 38.8887C190.316 38.2116 187.893 37.0584 186.243 35.4292C184.613 33.7788 183.799 31.737 183.799 29.3037C183.799 27.1878 184.37 25.3364 185.513 23.7495C186.676 22.1414 188.306 20.9036 190.4 20.0361C192.516 19.1686 194.971 18.7349 197.764 18.7349C200.451 18.7349 202.799 19.158 204.81 20.0044C206.841 20.8296 208.438 22.0145 209.602 23.5591C210.766 25.1037 211.432 26.9128 211.602 28.9863H203.953Z"/>
<path d="M217.252 19.1792H225.314V53.647H217.252V19.1792ZM221.251 14.2598C220.426 14.2598 219.654 14.0693 218.934 13.6885C218.215 13.2865 217.644 12.7469 217.221 12.0698C216.797 11.3927 216.586 10.6628 216.586 9.87988C216.586 9.07585 216.797 8.33529 217.221 7.6582C217.644 6.98112 218.215 6.45215 218.934 6.07129C219.654 5.69043 220.426 5.5 221.251 5.5C222.119 5.5 222.912 5.69043 223.632 6.07129C224.351 6.45215 224.922 6.98112 225.346 7.6582C225.769 8.33529 225.98 9.07585 225.98 9.87988C225.98 10.6628 225.769 11.3927 225.346 12.0698C224.922 12.7469 224.351 13.2865 223.632 13.6885C222.912 14.0693 222.119 14.2598 221.251 14.2598Z"/>
<path d="M246.834 54.3135C243.533 54.3135 240.623 53.5729 238.106 52.0918C235.609 50.6107 233.683 48.5265 232.329 45.8394C230.975 43.1522 230.298 40.0524 230.298 36.54C230.298 32.9854 230.975 29.875 232.329 27.209C233.683 24.5218 235.609 22.4377 238.106 20.9565C240.623 19.4754 243.533 18.7349 246.834 18.7349C250.156 18.7349 253.065 19.4754 255.562 20.9565C258.058 22.4377 259.973 24.5218 261.306 27.209C262.639 29.875 263.306 32.9854 263.306 36.54C263.306 40.0524 262.639 43.1522 261.306 45.8394C259.973 48.5265 258.058 50.6107 255.562 52.0918C253.065 53.5729 250.156 54.3135 246.834 54.3135ZM246.897 47.8706C248.674 47.8706 250.177 47.3734 251.404 46.3789C252.652 45.3633 253.583 43.9985 254.197 42.2847C254.81 40.5708 255.117 38.6453 255.117 36.5083C255.117 34.3501 254.81 32.4141 254.197 30.7002C253.583 28.9863 252.652 27.6322 251.404 26.6377C250.177 25.6221 248.674 25.1143 246.897 25.1143C245.077 25.1143 243.533 25.6221 242.263 26.6377C240.994 27.6322 240.042 28.9863 239.407 30.7002C238.772 32.4141 238.455 34.3501 238.455 36.5083C238.455 38.6665 238.772 40.6025 239.407 42.3164C240.042 44.0091 240.994 45.3633 242.263 46.3789C243.533 47.3734 245.077 47.8706 246.897 47.8706Z"/>
<path d="M276.415 53.647H268.353V19.1792H276.066V25.019H276.447C277.293 23.0301 278.584 21.4855 280.319 20.3853C282.054 19.285 284.191 18.7349 286.73 18.7349C289.121 18.7349 291.194 19.2427 292.951 20.2583C294.728 21.2528 296.093 22.7233 297.045 24.6699C298.018 26.6165 298.505 28.9546 298.505 31.6841V53.647H290.443V32.9219C290.443 31.3773 290.179 30.0654 289.65 28.9863C289.121 27.8861 288.359 27.0397 287.365 26.4473C286.37 25.8548 285.154 25.5586 283.715 25.5586C282.276 25.5586 281.006 25.8654 279.906 26.479C278.806 27.0926 277.949 27.9919 277.335 29.1768C276.722 30.3617 276.415 31.7793 276.415 33.4297V53.647Z"/>
<path d="M322.341 24.5747H322.722L332.91 7.68994H342.337L328.181 30.6685L342.559 53.647H332.974L322.722 36.9209H322.341L312.09 53.647H302.537L317.073 30.6685L302.727 7.68994H312.217L322.341 24.5747Z"/>
</mask>
<path d="M4.15381 53.647V46.4741H15.3892C18.6265 46.4741 21.3031 45.8817 23.4189 44.6968C25.556 43.5119 27.1641 41.7557 28.2432 39.4282C29.3223 37.0796 29.8618 34.1491 29.8618 30.6367C29.8618 27.1243 29.3328 24.2044 28.2749 21.877C27.217 19.5283 25.63 17.7721 23.5142 16.6084C21.4194 15.4447 18.7957 14.8628 15.6431 14.8628H3.8999V7.68994H16.0874C20.6366 7.68994 24.5615 8.61035 27.8623 10.4512C31.1631 12.2708 33.6916 14.9051 35.4478 18.354C37.2039 21.8029 38.082 25.8971 38.082 30.6367C38.082 35.3975 37.1934 39.5023 35.416 42.9512C33.6598 46.4001 31.1102 49.0449 27.7671 50.8857C24.424 52.7266 20.4355 53.647 15.8018 53.647H4.15381ZM8.50195 53.647H0.25V7.68994H8.50195V53.647Z" fill="black"/>
<path d="M58.8719 54.3135C55.5711 54.3135 52.6618 53.5729 50.1438 52.0918C47.6471 50.6107 45.7216 48.5265 44.3675 45.8394C43.0133 43.1522 42.3362 40.0524 42.3362 36.54C42.3362 32.9854 43.0133 29.875 44.3675 27.209C45.7216 24.5218 47.6471 22.4377 50.1438 20.9565C52.6618 19.4754 55.5711 18.7349 58.8719 18.7349C62.1938 18.7349 65.1032 19.4754 67.5999 20.9565C70.0966 22.4377 72.0115 24.5218 73.3445 27.209C74.6775 29.875 75.344 32.9854 75.344 36.54C75.344 40.0524 74.6775 43.1522 73.3445 45.8394C72.0115 48.5265 70.0966 50.6107 67.5999 52.0918C65.1032 53.5729 62.1938 54.3135 58.8719 54.3135ZM58.9354 47.8706C60.7127 47.8706 62.215 47.3734 63.4422 46.3789C64.6906 45.3633 65.6215 43.9985 66.2352 42.2847C66.8488 40.5708 67.1556 38.6453 67.1556 36.5083C67.1556 34.3501 66.8488 32.4141 66.2352 30.7002C65.6215 28.9863 64.6906 27.6322 63.4422 26.6377C62.215 25.6221 60.7127 25.1143 58.9354 25.1143C57.1157 25.1143 55.5711 25.6221 54.3016 26.6377C53.032 27.6322 52.0799 28.9863 51.4451 30.7002C50.8104 32.4141 50.493 34.3501 50.493 36.5083C50.493 38.6665 50.8104 40.6025 51.4451 42.3164C52.0799 44.0091 53.032 45.3633 54.3016 46.3789C55.5711 47.3734 57.1157 47.8706 58.9354 47.8706Z" fill="black"/>
<path d="M95.4039 54.3135C92.0396 54.3135 89.0986 53.5623 86.5807 52.0601C84.0839 50.5578 82.169 48.4631 80.836 45.7759C79.5242 43.0887 78.8683 40.0101 78.8683 36.54C78.8683 33.0488 79.5453 29.9596 80.8995 27.2725C82.2537 24.5641 84.1686 22.4694 86.6441 20.9883C89.1197 19.486 92.0185 18.7349 95.3404 18.7349C98.1122 18.7349 100.588 19.2427 102.767 20.2583C104.947 21.2528 106.671 22.6916 107.941 24.5747C109.231 26.4367 109.961 28.6055 110.13 31.0811H102.418C102.206 29.9385 101.794 28.9334 101.18 28.0659C100.567 27.1772 99.7838 26.479 98.8316 25.9712C97.8795 25.4634 96.7581 25.2095 95.4674 25.2095C93.7958 25.2095 92.3253 25.6644 91.0558 26.5742C89.7862 27.4629 88.7918 28.743 88.0724 30.4146C87.3741 32.0861 87.025 34.075 87.025 36.3813C87.025 38.7088 87.3741 40.7295 88.0724 42.4434C88.7706 44.1361 89.7545 45.4373 91.024 46.3472C92.2936 47.257 93.7747 47.7119 95.4674 47.7119C96.6734 47.7119 97.7525 47.4897 98.7047 47.0454C99.678 46.5799 100.482 45.9134 101.117 45.0459C101.752 44.1572 102.185 43.1099 102.418 41.9038H110.13C109.94 44.3371 109.221 46.4847 107.972 48.3467C106.724 50.2087 105.021 51.6686 102.862 52.7266C100.725 53.7845 98.2392 54.3135 95.4039 54.3135Z" fill="black"/>
<path d="M115.305 7.68994H144.726V14.6406H123.557V27.209H142.695V34.0962H123.557V53.647H115.305V7.68994Z" fill="black"/>
<path d="M169.896 19.1792H177.926V53.647H170.15V47.5532H169.769C168.923 49.5422 167.611 51.1291 165.834 52.314C164.078 53.4989 161.93 54.0913 159.391 54.0913C157.127 54.0913 155.127 53.5835 153.392 52.5679C151.678 51.5311 150.335 50.0394 149.362 48.0928C148.409 46.1462 147.933 43.8187 147.933 41.1104V19.1792H155.995V39.8726C155.995 41.3114 156.259 42.5703 156.788 43.6494C157.338 44.7285 158.111 45.5643 159.105 46.1567C160.1 46.728 161.232 47.0137 162.501 47.0137C163.771 47.0137 164.966 46.7174 166.088 46.125C167.23 45.5114 168.151 44.6121 168.849 43.4272C169.547 42.2212 169.896 40.793 169.896 39.1426V19.1792Z" fill="black"/>
<path d="M203.953 28.9863C203.699 27.6322 203.043 26.5848 201.985 25.8442C200.927 25.1037 199.552 24.7334 197.859 24.7334C196.716 24.7334 195.69 24.9027 194.78 25.2412C193.87 25.5798 193.151 26.0664 192.622 26.7012C192.114 27.3359 191.86 28.0448 191.86 28.8276C191.839 29.7375 192.231 30.5203 193.035 31.1763C193.839 31.8322 195.087 32.3506 196.78 32.7314L202.651 34.001C205.91 34.6781 208.333 35.7889 209.919 37.3335C211.528 38.8781 212.332 40.8776 212.332 43.332C212.332 45.4691 211.729 47.3734 210.522 49.0449C209.316 50.6953 207.613 51.986 205.413 52.917C203.212 53.848 200.62 54.3135 197.637 54.3135C194.738 54.3135 192.231 53.9009 190.115 53.0757C187.999 52.2505 186.327 51.055 185.1 49.4893C183.873 47.9023 183.111 46.0192 182.815 43.8398H191.035C191.331 45.2786 192.03 46.3683 193.13 47.1089C194.23 47.8283 195.722 48.188 197.605 48.188C198.896 48.188 200.028 48.0293 201.001 47.7119C201.974 47.3734 202.725 46.8973 203.254 46.2837C203.783 45.6489 204.048 44.9084 204.048 44.062C204.048 43.0464 203.646 42.2106 202.842 41.5547C202.038 40.8988 200.779 40.391 199.065 40.0312L193.511 38.8887C190.316 38.2116 187.893 37.0584 186.243 35.4292C184.613 33.7788 183.799 31.737 183.799 29.3037C183.799 27.1878 184.37 25.3364 185.513 23.7495C186.676 22.1414 188.306 20.9036 190.4 20.0361C192.516 19.1686 194.971 18.7349 197.764 18.7349C200.451 18.7349 202.799 19.158 204.81 20.0044C206.841 20.8296 208.438 22.0145 209.602 23.5591C210.766 25.1037 211.432 26.9128 211.602 28.9863H203.953Z" fill="black"/>
<path d="M217.252 19.1792H225.314V53.647H217.252V19.1792ZM221.251 14.2598C220.426 14.2598 219.654 14.0693 218.934 13.6885C218.215 13.2865 217.644 12.7469 217.221 12.0698C216.797 11.3927 216.586 10.6628 216.586 9.87988C216.586 9.07585 216.797 8.33529 217.221 7.6582C217.644 6.98112 218.215 6.45215 218.934 6.07129C219.654 5.69043 220.426 5.5 221.251 5.5C222.119 5.5 222.912 5.69043 223.632 6.07129C224.351 6.45215 224.922 6.98112 225.346 7.6582C225.769 8.33529 225.98 9.07585 225.98 9.87988C225.98 10.6628 225.769 11.3927 225.346 12.0698C224.922 12.7469 224.351 13.2865 223.632 13.6885C222.912 14.0693 222.119 14.2598 221.251 14.2598Z" fill="black"/>
<path d="M246.834 54.3135C243.533 54.3135 240.623 53.5729 238.106 52.0918C235.609 50.6107 233.683 48.5265 232.329 45.8394C230.975 43.1522 230.298 40.0524 230.298 36.54C230.298 32.9854 230.975 29.875 232.329 27.209C233.683 24.5218 235.609 22.4377 238.106 20.9565C240.623 19.4754 243.533 18.7349 246.834 18.7349C250.156 18.7349 253.065 19.4754 255.562 20.9565C258.058 22.4377 259.973 24.5218 261.306 27.209C262.639 29.875 263.306 32.9854 263.306 36.54C263.306 40.0524 262.639 43.1522 261.306 45.8394C259.973 48.5265 258.058 50.6107 255.562 52.0918C253.065 53.5729 250.156 54.3135 246.834 54.3135ZM246.897 47.8706C248.674 47.8706 250.177 47.3734 251.404 46.3789C252.652 45.3633 253.583 43.9985 254.197 42.2847C254.81 40.5708 255.117 38.6453 255.117 36.5083C255.117 34.3501 254.81 32.4141 254.197 30.7002C253.583 28.9863 252.652 27.6322 251.404 26.6377C250.177 25.6221 248.674 25.1143 246.897 25.1143C245.077 25.1143 243.533 25.6221 242.263 26.6377C240.994 27.6322 240.042 28.9863 239.407 30.7002C238.772 32.4141 238.455 34.3501 238.455 36.5083C238.455 38.6665 238.772 40.6025 239.407 42.3164C240.042 44.0091 240.994 45.3633 242.263 46.3789C243.533 47.3734 245.077 47.8706 246.897 47.8706Z" fill="black"/>
<path d="M276.415 53.647H268.353V19.1792H276.066V25.019H276.447C277.293 23.0301 278.584 21.4855 280.319 20.3853C282.054 19.285 284.191 18.7349 286.73 18.7349C289.121 18.7349 291.194 19.2427 292.951 20.2583C294.728 21.2528 296.093 22.7233 297.045 24.6699C298.018 26.6165 298.505 28.9546 298.505 31.6841V53.647H290.443V32.9219C290.443 31.3773 290.179 30.0654 289.65 28.9863C289.121 27.8861 288.359 27.0397 287.365 26.4473C286.37 25.8548 285.154 25.5586 283.715 25.5586C282.276 25.5586 281.006 25.8654 279.906 26.479C278.806 27.0926 277.949 27.9919 277.335 29.1768C276.722 30.3617 276.415 31.7793 276.415 33.4297V53.647Z" fill="black"/>
<path d="M322.341 24.5747H322.722L332.91 7.68994H342.337L328.181 30.6685L342.559 53.647H332.974L322.722 36.9209H322.341L312.09 53.647H302.537L317.073 30.6685L302.727 7.68994H312.217L322.341 24.5747Z" fill="black"/>
<path d="M4.15381 53.647V46.4741H15.3892C18.6265 46.4741 21.3031 45.8817 23.4189 44.6968C25.556 43.5119 27.1641 41.7557 28.2432 39.4282C29.3223 37.0796 29.8618 34.1491 29.8618 30.6367C29.8618 27.1243 29.3328 24.2044 28.2749 21.877C27.217 19.5283 25.63 17.7721 23.5142 16.6084C21.4194 15.4447 18.7957 14.8628 15.6431 14.8628H3.8999V7.68994H16.0874C20.6366 7.68994 24.5615 8.61035 27.8623 10.4512C31.1631 12.2708 33.6916 14.9051 35.4478 18.354C37.2039 21.8029 38.082 25.8971 38.082 30.6367C38.082 35.3975 37.1934 39.5023 35.416 42.9512C33.6598 46.4001 31.1102 49.0449 27.7671 50.8857C24.424 52.7266 20.4355 53.647 15.8018 53.647H4.15381ZM8.50195 53.647H0.25V7.68994H8.50195V53.647Z" stroke="black" stroke-width="0.5" mask="url(#path-1-outside-1_298_8)"/>
<path d="M58.8719 54.3135C55.5711 54.3135 52.6618 53.5729 50.1438 52.0918C47.6471 50.6107 45.7216 48.5265 44.3675 45.8394C43.0133 43.1522 42.3362 40.0524 42.3362 36.54C42.3362 32.9854 43.0133 29.875 44.3675 27.209C45.7216 24.5218 47.6471 22.4377 50.1438 20.9565C52.6618 19.4754 55.5711 18.7349 58.8719 18.7349C62.1938 18.7349 65.1032 19.4754 67.5999 20.9565C70.0966 22.4377 72.0115 24.5218 73.3445 27.209C74.6775 29.875 75.344 32.9854 75.344 36.54C75.344 40.0524 74.6775 43.1522 73.3445 45.8394C72.0115 48.5265 70.0966 50.6107 67.5999 52.0918C65.1032 53.5729 62.1938 54.3135 58.8719 54.3135ZM58.9354 47.8706C60.7127 47.8706 62.215 47.3734 63.4422 46.3789C64.6906 45.3633 65.6215 43.9985 66.2352 42.2847C66.8488 40.5708 67.1556 38.6453 67.1556 36.5083C67.1556 34.3501 66.8488 32.4141 66.2352 30.7002C65.6215 28.9863 64.6906 27.6322 63.4422 26.6377C62.215 25.6221 60.7127 25.1143 58.9354 25.1143C57.1157 25.1143 55.5711 25.6221 54.3016 26.6377C53.032 27.6322 52.0799 28.9863 51.4451 30.7002C50.8104 32.4141 50.493 34.3501 50.493 36.5083C50.493 38.6665 50.8104 40.6025 51.4451 42.3164C52.0799 44.0091 53.032 45.3633 54.3016 46.3789C55.5711 47.3734 57.1157 47.8706 58.9354 47.8706Z" stroke="black" stroke-width="0.5" mask="url(#path-1-outside-1_298_8)"/>
<path d="M95.4039 54.3135C92.0396 54.3135 89.0986 53.5623 86.5807 52.0601C84.0839 50.5578 82.169 48.4631 80.836 45.7759C79.5242 43.0887 78.8683 40.0101 78.8683 36.54C78.8683 33.0488 79.5453 29.9596 80.8995 27.2725C82.2537 24.5641 84.1686 22.4694 86.6441 20.9883C89.1197 19.486 92.0185 18.7349 95.3404 18.7349C98.1122 18.7349 100.588 19.2427 102.767 20.2583C104.947 21.2528 106.671 22.6916 107.941 24.5747C109.231 26.4367 109.961 28.6055 110.13 31.0811H102.418C102.206 29.9385 101.794 28.9334 101.18 28.0659C100.567 27.1772 99.7838 26.479 98.8316 25.9712C97.8795 25.4634 96.7581 25.2095 95.4674 25.2095C93.7958 25.2095 92.3253 25.6644 91.0558 26.5742C89.7862 27.4629 88.7918 28.743 88.0724 30.4146C87.3741 32.0861 87.025 34.075 87.025 36.3813C87.025 38.7088 87.3741 40.7295 88.0724 42.4434C88.7706 44.1361 89.7545 45.4373 91.024 46.3472C92.2936 47.257 93.7747 47.7119 95.4674 47.7119C96.6734 47.7119 97.7525 47.4897 98.7047 47.0454C99.678 46.5799 100.482 45.9134 101.117 45.0459C101.752 44.1572 102.185 43.1099 102.418 41.9038H110.13C109.94 44.3371 109.221 46.4847 107.972 48.3467C106.724 50.2087 105.021 51.6686 102.862 52.7266C100.725 53.7845 98.2392 54.3135 95.4039 54.3135Z" stroke="black" stroke-width="0.5" mask="url(#path-1-outside-1_298_8)"/>
<path d="M115.305 7.68994H144.726V14.6406H123.557V27.209H142.695V34.0962H123.557V53.647H115.305V7.68994Z" stroke="black" stroke-width="0.5" mask="url(#path-1-outside-1_298_8)"/>
<path d="M169.896 19.1792H177.926V53.647H170.15V47.5532H169.769C168.923 49.5422 167.611 51.1291 165.834 52.314C164.078 53.4989 161.93 54.0913 159.391 54.0913C157.127 54.0913 155.127 53.5835 153.392 52.5679C151.678 51.5311 150.335 50.0394 149.362 48.0928C148.409 46.1462 147.933 43.8187 147.933 41.1104V19.1792H155.995V39.8726C155.995 41.3114 156.259 42.5703 156.788 43.6494C157.338 44.7285 158.111 45.5643 159.105 46.1567C160.1 46.728 161.232 47.0137 162.501 47.0137C163.771 47.0137 164.966 46.7174 166.088 46.125C167.23 45.5114 168.151 44.6121 168.849 43.4272C169.547 42.2212 169.896 40.793 169.896 39.1426V19.1792Z" stroke="black" stroke-width="0.5" mask="url(#path-1-outside-1_298_8)"/>
<path d="M203.953 28.9863C203.699 27.6322 203.043 26.5848 201.985 25.8442C200.927 25.1037 199.552 24.7334 197.859 24.7334C196.716 24.7334 195.69 24.9027 194.78 25.2412C193.87 25.5798 193.151 26.0664 192.622 26.7012C192.114 27.3359 191.86 28.0448 191.86 28.8276C191.839 29.7375 192.231 30.5203 193.035 31.1763C193.839 31.8322 195.087 32.3506 196.78 32.7314L202.651 34.001C205.91 34.6781 208.333 35.7889 209.919 37.3335C211.528 38.8781 212.332 40.8776 212.332 43.332C212.332 45.4691 211.729 47.3734 210.522 49.0449C209.316 50.6953 207.613 51.986 205.413 52.917C203.212 53.848 200.62 54.3135 197.637 54.3135C194.738 54.3135 192.231 53.9009 190.115 53.0757C187.999 52.2505 186.327 51.055 185.1 49.4893C183.873 47.9023 183.111 46.0192 182.815 43.8398H191.035C191.331 45.2786 192.03 46.3683 193.13 47.1089C194.23 47.8283 195.722 48.188 197.605 48.188C198.896 48.188 200.028 48.0293 201.001 47.7119C201.974 47.3734 202.725 46.8973 203.254 46.2837C203.783 45.6489 204.048 44.9084 204.048 44.062C204.048 43.0464 203.646 42.2106 202.842 41.5547C202.038 40.8988 200.779 40.391 199.065 40.0312L193.511 38.8887C190.316 38.2116 187.893 37.0584 186.243 35.4292C184.613 33.7788 183.799 31.737 183.799 29.3037C183.799 27.1878 184.37 25.3364 185.513 23.7495C186.676 22.1414 188.306 20.9036 190.4 20.0361C192.516 19.1686 194.971 18.7349 197.764 18.7349C200.451 18.7349 202.799 19.158 204.81 20.0044C206.841 20.8296 208.438 22.0145 209.602 23.5591C210.766 25.1037 211.432 26.9128 211.602 28.9863H203.953Z" stroke="black" stroke-width="0.5" mask="url(#path-1-outside-1_298_8)"/>
<path d="M217.252 19.1792H225.314V53.647H217.252V19.1792ZM221.251 14.2598C220.426 14.2598 219.654 14.0693 218.934 13.6885C218.215 13.2865 217.644 12.7469 217.221 12.0698C216.797 11.3927 216.586 10.6628 216.586 9.87988C216.586 9.07585 216.797 8.33529 217.221 7.6582C217.644 6.98112 218.215 6.45215 218.934 6.07129C219.654 5.69043 220.426 5.5 221.251 5.5C222.119 5.5 222.912 5.69043 223.632 6.07129C224.351 6.45215 224.922 6.98112 225.346 7.6582C225.769 8.33529 225.98 9.07585 225.98 9.87988C225.98 10.6628 225.769 11.3927 225.346 12.0698C224.922 12.7469 224.351 13.2865 223.632 13.6885C222.912 14.0693 222.119 14.2598 221.251 14.2598Z" stroke="black" stroke-width="0.5" mask="url(#path-1-outside-1_298_8)"/>
<path d="M246.834 54.3135C243.533 54.3135 240.623 53.5729 238.106 52.0918C235.609 50.6107 233.683 48.5265 232.329 45.8394C230.975 43.1522 230.298 40.0524 230.298 36.54C230.298 32.9854 230.975 29.875 232.329 27.209C233.683 24.5218 235.609 22.4377 238.106 20.9565C240.623 19.4754 243.533 18.7349 246.834 18.7349C250.156 18.7349 253.065 19.4754 255.562 20.9565C258.058 22.4377 259.973 24.5218 261.306 27.209C262.639 29.875 263.306 32.9854 263.306 36.54C263.306 40.0524 262.639 43.1522 261.306 45.8394C259.973 48.5265 258.058 50.6107 255.562 52.0918C253.065 53.5729 250.156 54.3135 246.834 54.3135ZM246.897 47.8706C248.674 47.8706 250.177 47.3734 251.404 46.3789C252.652 45.3633 253.583 43.9985 254.197 42.2847C254.81 40.5708 255.117 38.6453 255.117 36.5083C255.117 34.3501 254.81 32.4141 254.197 30.7002C253.583 28.9863 252.652 27.6322 251.404 26.6377C250.177 25.6221 248.674 25.1143 246.897 25.1143C245.077 25.1143 243.533 25.6221 242.263 26.6377C240.994 27.6322 240.042 28.9863 239.407 30.7002C238.772 32.4141 238.455 34.3501 238.455 36.5083C238.455 38.6665 238.772 40.6025 239.407 42.3164C240.042 44.0091 240.994 45.3633 242.263 46.3789C243.533 47.3734 245.077 47.8706 246.897 47.8706Z" stroke="black" stroke-width="0.5" mask="url(#path-1-outside-1_298_8)"/>
<path d="M276.415 53.647H268.353V19.1792H276.066V25.019H276.447C277.293 23.0301 278.584 21.4855 280.319 20.3853C282.054 19.285 284.191 18.7349 286.73 18.7349C289.121 18.7349 291.194 19.2427 292.951 20.2583C294.728 21.2528 296.093 22.7233 297.045 24.6699C298.018 26.6165 298.505 28.9546 298.505 31.6841V53.647H290.443V32.9219C290.443 31.3773 290.179 30.0654 289.65 28.9863C289.121 27.8861 288.359 27.0397 287.365 26.4473C286.37 25.8548 285.154 25.5586 283.715 25.5586C282.276 25.5586 281.006 25.8654 279.906 26.479C278.806 27.0926 277.949 27.9919 277.335 29.1768C276.722 30.3617 276.415 31.7793 276.415 33.4297V53.647Z" stroke="black" stroke-width="0.5" mask="url(#path-1-outside-1_298_8)"/>
<path d="M322.341 24.5747H322.722L332.91 7.68994H342.337L328.181 30.6685L342.559 53.647H332.974L322.722 36.9209H322.341L312.09 53.647H302.537L317.073 30.6685L302.727 7.68994H312.217L322.341 24.5747Z" stroke="black" stroke-width="0.5" mask="url(#path-1-outside-1_298_8)"/>
</svg>
